<?xml version="1.0" encoding="utf-8"?>
<!-- Generator: Adobe Illustrator 18.1.1, SVG Export Plug-In . SVG Version: 6.00 Build 0)  -->
<svg version="1.1" id="Layer_1" xmlns="http://www.w3.org/2000/svg" xmlns:xlink="http://www.w3.org/1999/xlink" x="0px" y="0px"
	 viewBox="0 0 1190.6 841.9" enable-background="new 0 0 1190.6 841.9" xml:space="preserve">
<path fill="#CF2027" d="M464.4,493.9l-0.6-0.7l0.6-0.7c2.2-2.5,3.5-5.7,3.5-9.1c0-7.5-6.1-13.6-13.6-13.6h-19.5
	c-2.1,0-3.9,1.8-3.9,3.9c0,2.1,1.8,3.9,3.9,3.9h19.5c3.2,0,5.8,2.6,5.8,5.8c0,3.2-2.6,5.8-5.8,5.8h-14.6c-2.1,0-3.9,1.8-3.9,3.9
	s1.8,3.9,3.9,3.9h14.6c3.2,0,5.8,2.6,5.8,5.8c0,3.2-2.6,5.8-5.8,5.8h-19.5c-2.1,0-3.9,1.8-3.9,3.9c0,2.1,1.8,3.9,3.9,3.9h19.5
	c7.5,0,13.6-6.1,13.6-13.6C467.9,499.6,466.6,496.3,464.4,493.9z"/>
<path fill="#CF2027" d="M503.6,469.9H489c-2.1,0-3.9,1.8-3.9,3.9v38.9c0,2.1,1.8,3.9,3.9,3.9h14.6c12.9,0,23.3-10.5,23.3-23.3
	S516.5,469.9,503.6,469.9z M503.6,508.8h-10.7v-31.2h10.7c8.6,0,15.6,7,15.6,15.6S512.2,508.8,503.6,508.8z"/>
<path fill="#232323" d="M562.1,479.6c-3.1,0-6.2,0.8-9.2,2.5l-0.9,0.5l-0.4-1c-0.7-1.6-2.3-2.6-4-2.6c-2.5,0-4.5,2-4.5,4.5
	c0,1.8,1,3.4,2.6,4.1l1,0.5L546,489c-1.6,2.7-2.4,5.8-2.4,9.1v14.6c0,2.1,1.8,3.9,3.9,3.9s3.9-1.8,3.9-3.9v-14.6
	c0-5.9,4.8-10.7,10.7-10.7c2.1,0,3.9-1.8,3.9-3.9C565.9,481.4,564.2,479.6,562.1,479.6z"/>
<path fill="#232323" d="M596.2,479.6c-10.2,0-18.5,8.3-18.5,18.5c0,10.2,8.3,18.5,18.5,18.5h4.9c2.1,0,3.9-1.8,3.9-3.9
	c0-2.1-1.8-3.9-3.9-3.9h-4.9c-3.9,0-7.4-2-9.3-5.4l-0.8-1.5h24.7c2.1,0,3.9-1.8,3.9-3.9C614.7,487.9,606.4,479.6,596.2,479.6z
	 M586.1,494.2l0.9-1.5c1.9-3.3,5.5-5.4,9.3-5.4s7.4,2.1,9.3,5.4l0.9,1.5H586.1z"/>
<path fill="#232323" d="M664.5,508.6l-1-0.4l0.5-0.9c1.6-3,2.5-6,2.5-9.2c0-10.2-8.3-18.5-18.5-18.5c-10.2,0-18.5,8.3-18.5,18.5
	c0,10.2,8.3,18.5,18.5,18.5c3.2,0,6.4-0.8,9.1-2.4l0.9-0.5l0.5,1c0.8,1.6,2.4,2.6,4.1,2.6c2.5,0,4.5-2,4.5-4.5
	C667.1,510.9,666,509.3,664.5,508.6z M648,508.8c-5.9,0-10.7-4.8-10.7-10.7c0-5.9,4.8-10.7,10.7-10.7c5.9,0,10.7,4.8,10.7,10.7
	C658.7,504,653.9,508.8,648,508.8z"/>
<path fill="#232323" d="M740.7,495.7c0-8.9-7.2-16.1-16.1-16.1c-4.3,0-8.5,1.7-11.5,4.8l-0.7,0.7l-0.7-0.7
	c-3.1-3.1-7.2-4.8-11.5-4.8c-2.5,0-4.9,0.6-7.2,1.7l-0.8,0.4L692,481c-0.9-1.3-2.3-2-3.8-2c-2.5,0-4.5,2-4.5,4.5
	c0,1.5,0.7,2.9,1.9,3.8l0.7,0.5l-0.4,0.8c-1.1,2.2-1.6,4.6-1.6,7.2v17c0,2.1,1.8,3.9,3.9,3.9c2.1,0,3.9-1.8,3.9-3.9v-17
	c0-4.6,3.7-8.3,8.3-8.3c4.6,0,8.3,3.7,8.3,8.3v17c0,2.1,1.8,3.9,3.9,3.9c2.1,0,3.9-1.8,3.9-3.9v-17c0-4.6,3.7-8.3,8.3-8.3
	c4.6,0,8.3,3.7,8.3,8.3v17c0,2.1,1.8,3.9,3.9,3.9s3.9-1.8,3.9-3.9V495.7z"/>
<path fill="#232323" d="M562.1,319c3.2-3.5,7-6.5,11-8.8c7-4,15-6.2,23.2-6.2c12.6,0,24.2,5,32.7,13.3c1.4,1.4,3.4,2,5.3,1.5
	c0,0,0.1,0,0.1,0c4.2-1.1,5.6-6.3,2.5-9.3c-10.5-10.4-25-16.6-40.6-16.6c-12.5,0-24.6,4.1-34.4,11.4c-3.9,2.9-7.5,6.3-10.6,10.1
	 M551.4,314.3c-6.6-2.3-13.9-3.6-21.3-3.6c-37-0.3-67.5,29.8-67.6,66.9c-0.1,37,30,67.2,67,67.2c1.3,0,33.8,0,35.1-0.1
	c7.1-0.4,6.8-11.1-0.4-11.1h-34.6c-30.5,0-55.8-24.2-56.5-54.7c-0.7-31.5,24.7-57.3,56-57.3c7.7,0,15.1,1.5,22.1,4.5l4.2,1.8
	l2.6-3.8c1.2-1.8,2.6-3.5,4.1-5.1"/>
<circle fill="#232323" cx="737" cy="512.7" r="5"/>
<path fill="#CF2027" d="M652,329.7c-2.4,0-4.7,0.1-7,0.4c-0.3,0-0.5,0.1-0.8,0.2c-23.2,3.5-41.6,22.2-44.5,45.6
	c-0.4,3.2,2.1,6,5.4,6c2.7,0,5-2,5.3-4.7c2.6-20.7,20.3-36.7,41.7-36.7c0.3,0,0.5,0,0.8-0.1c25.2,0.7,45.4,21.4,45.3,46.8
	c-0.1,25.7-21.4,46.3-47.1,46.3h-31.9h-16.5h-3.2h-3.9c-1.6-1.8-3.9-3-6.4-3c-4.7,0-8.5,3.8-8.5,8.5s3.8,8.5,8.5,8.5
	c2.5,0,4.8-1.1,6.3-2.8h16.7h39.5c23.4,0,43.4-14,52.3-34.1c3.3-7.3,5.2-15.3,5.2-23.8C709.1,355.3,683.5,329.7,652,329.7z"/>
<g>
	<g>
		<path fill="#232323" d="M437.5,544.9v-5.7l-5.9-5.9c-0.3-0.3-0.5-0.7-0.5-1.1c0-0.8,0.7-1.6,1.6-1.6c0.4,0,0.8,0.2,1.1,0.5
			l5.3,5.3l5.3-5.3c0.3-0.3,0.7-0.5,1.1-0.5c0.8,0,1.6,0.8,1.6,1.6c0,0.4-0.2,0.8-0.5,1.1l-5.9,5.9v5.7c0,0.9-0.7,1.6-1.6,1.6
			C438.2,546.5,437.5,545.8,437.5,544.9z"/>
		<path fill="#232323" d="M455.8,533.7c3.5,0,6.4,2.9,6.4,6.4s-2.9,6.4-6.4,6.4s-6.4-2.9-6.4-6.4S452.2,533.7,455.8,533.7z
			 M455.8,543.3c1.8,0,3.2-1.4,3.2-3.2s-1.4-3.2-3.2-3.2s-3.2,1.4-3.2,3.2S454,543.3,455.8,543.3z"/>
		<path fill="#232323" d="M480.8,540.1c0,1.1-0.3,2.2-0.8,3.2c0.6,0.3,1,0.9,1,1.6c0,1-0.8,1.8-1.8,1.8c-0.7,0-1.3-0.4-1.6-1
			c-0.9,0.5-2,0.8-3.1,0.8c-3.5,0-6.4-2.9-6.4-6.4v-4.8c0-0.9,0.7-1.6,1.6-1.6c0.9,0,1.6,0.7,1.6,1.6v4.8c0,1.8,1.4,3.2,3.2,3.2
			c1.8,0,3.2-1.4,3.2-3.2v-4.8c0-0.9,0.7-1.6,1.6-1.6c0.9,0,1.6,0.7,1.6,1.6V540.1z"/>
		<path fill="#232323" d="M510.7,543.3c0.6,0.3,1,0.9,1,1.6c0,1-0.8,1.8-1.8,1.8c-0.7,0-1.3-0.4-1.6-1c-0.9,0.5-2,0.8-3.1,0.8
			c-3.5,0-6.4-2.9-6.4-6.4s2.9-6.4,6.4-6.4c1.1,0,2.2,0.3,3.2,0.9v-4.1c0-0.9,0.7-1.6,1.6-1.6s1.6,0.7,1.6,1.6v9.6
			C511.6,541.3,511.3,542.4,510.7,543.3z M505.2,536.9c-1.8,0-3.2,1.4-3.2,3.2s1.4,3.2,3.2,3.2s3.2-1.4,3.2-3.2
			S507,536.9,505.2,536.9z"/>
		<path fill="#232323" d="M520.1,533.5c0.7,0,1.3,0.4,1.6,1c0.9-0.5,2-0.8,3.2-0.8c0.9,0,1.6,0.7,1.6,1.6s-0.7,1.6-1.6,1.6
			c-1.8,0-3.2,1.4-3.2,3.2v4.8c0,0.9-0.7,1.6-1.6,1.6c-0.9,0-1.6-0.7-1.6-1.6v-4.8c0-1.1,0.3-2.2,0.8-3.1c-0.6-0.3-1-0.9-1-1.6
			C518.3,534.3,519.1,533.5,520.1,533.5z"/>
		<path fill="#232323" d="M537.5,546.5c-3.5,0-6.4-2.9-6.4-6.4s2.9-6.4,6.4-6.4s6.4,2.9,6.4,6.4c0,0.9-0.7,1.6-1.6,1.6h-7.6
			c0.5,1,1.6,1.6,2.8,1.6h1.6c0.9,0,1.6,0.7,1.6,1.6s-0.7,1.6-1.6,1.6H537.5z M534.8,538.5h5.5c-0.5-1-1.6-1.6-2.8-1.6
			C536.3,536.9,535.3,537.6,534.8,538.5z"/>
		<path fill="#232323" d="M556,533.7c3.5,0,6.4,2.9,6.4,6.4c0,1.1-0.3,2.2-0.8,3.2c0.6,0.3,1,0.9,1,1.6c0,1-0.8,1.8-1.8,1.8
			c-0.7,0-1.3-0.4-1.6-1c-0.9,0.5-2,0.8-3.1,0.8c-3.5,0-6.4-2.9-6.4-6.4S552.5,533.7,556,533.7z M556,543.3c1.8,0,3.2-1.4,3.2-3.2
			s-1.4-3.2-3.2-3.2s-3.2,1.4-3.2,3.2S554.2,543.3,556,543.3z"/>
		<path fill="#232323" d="M577.1,539.3c0-1.3-1.1-2.4-2.4-2.4c-1.3,0-2.4,1.1-2.4,2.4v5.6c0,0.9-0.7,1.6-1.6,1.6
			c-0.9,0-1.6-0.7-1.6-1.6v-5.6c0-0.9,0.2-1.8,0.6-2.5c-0.5-0.3-0.8-0.9-0.8-1.5c0-1,0.8-1.8,1.8-1.8c0.6,0,1.2,0.3,1.5,0.8
			c0.7-0.4,1.6-0.6,2.5-0.6c1.6,0,3,0.6,4,1.7c1-1,2.4-1.7,4-1.7c3.1,0,5.6,2.5,5.6,5.6v5.6c0,0.9-0.7,1.6-1.6,1.6
			c-0.9,0-1.6-0.7-1.6-1.6v-5.6c0-1.3-1.1-2.4-2.4-2.4c-1.3,0-2.4,1.1-2.4,2.4v5.6c0,0.9-0.7,1.6-1.6,1.6c-0.9,0-1.6-0.7-1.6-1.6
			V539.3z"/>
		<path fill="#232323" d="M594.4,544.9c0-0.9,0.7-1.6,1.6-1.6s1.6,0.7,1.6,1.6v3.2c0,0.9-0.7,1.6-1.6,1.6s-1.6-0.7-1.6-1.6V544.9z"
			/>
		<path fill="#232323" d="M623.3,540.9v-5.6c0-0.9,0.7-1.6,1.6-1.6s1.6,0.7,1.6,1.6v5.6c0,1.3,1.1,2.4,2.4,2.4
			c1.3,0,2.4-1.1,2.4-2.4v-5.6c0-0.9,0.7-1.6,1.6-1.6s1.6,0.7,1.6,1.6v5.6c0,3.1-2.5,5.6-5.6,5.6c-1.6,0-3-0.6-4-1.7
			c-1,1-2.4,1.7-4,1.7c-3.1,0-5.6-2.5-5.6-5.6v-5.6c0-0.9,0.7-1.6,1.6-1.6s1.6,0.7,1.6,1.6v5.6c0,1.3,1.1,2.4,2.4,2.4
			C622.2,543.3,623.3,542.3,623.3,540.9z"/>
		<path fill="#232323" d="M646.8,546.5c-3.5,0-6.4-2.9-6.4-6.4s2.9-6.4,6.4-6.4c3.5,0,6.4,2.9,6.4,6.4c0,0.9-0.7,1.6-1.6,1.6H644
			c0.5,1,1.6,1.6,2.8,1.6h1.6c0.9,0,1.6,0.7,1.6,1.6s-0.7,1.6-1.6,1.6H646.8z M644,538.5h5.5c-0.5-1-1.6-1.6-2.8-1.6
			C645.6,536.9,644.6,537.6,644,538.5z"/>
		<path fill="#232323" d="M672.7,533.5c0.7,0,1.3,0.4,1.6,1c1-0.5,2-0.8,3.2-0.8c3.5,0,6.4,2.9,6.4,6.4s-2.9,6.4-6.4,6.4
			c-1.2,0-2.3-0.3-3.2-0.8v4c0,0.9-0.7,1.6-1.6,1.6s-1.6-0.7-1.6-1.6v-9.6c0-1.1,0.3-2.2,0.8-3.1c-0.6-0.3-1-0.9-1-1.6
			C670.9,534.3,671.7,533.5,672.7,533.5z M677.5,543.3c1.8,0,3.2-1.4,3.2-3.2s-1.4-3.2-3.2-3.2s-3.2,1.4-3.2,3.2
			S675.8,543.3,677.5,543.3z"/>
		<path fill="#232323" d="M691.8,533.5c0.7,0,1.3,0.4,1.6,1c1-0.5,2-0.8,3.2-0.8c0.9,0,1.6,0.7,1.6,1.6s-0.7,1.6-1.6,1.6
			c-1.8,0-3.2,1.4-3.2,3.2v4.8c0,0.9-0.7,1.6-1.6,1.6s-1.6-0.7-1.6-1.6v-4.8c0-1.1,0.3-2.2,0.8-3.1c-0.6-0.3-1-0.9-1-1.6
			C690,534.3,690.8,533.5,691.8,533.5z"/>
		<path fill="#232323" d="M705.9,529.3c1,0,1.8,0.8,1.8,1.8s-0.8,1.8-1.8,1.8s-1.8-0.8-1.8-1.8S704.9,529.3,705.9,529.3z
			 M707.5,544.9c0,0.9-0.7,1.6-1.6,1.6s-1.6-0.7-1.6-1.6v-9.6c0-0.9,0.7-1.6,1.6-1.6s1.6,0.7,1.6,1.6V544.9z"/>
		<path fill="#232323" d="M716,533.5c0.7,0,1.3,0.4,1.6,1c1-0.5,2-0.8,3.2-0.8c3.5,0,6.4,2.9,6.4,6.4v4.8c0,0.9-0.7,1.6-1.6,1.6
			s-1.6-0.7-1.6-1.6v-4.8c0-1.8-1.4-3.2-3.2-3.2s-3.2,1.4-3.2,3.2v4.8c0,0.9-0.7,1.6-1.6,1.6s-1.6-0.7-1.6-1.6v-4.8
			c0-1.1,0.3-2.2,0.8-3.1c-0.6-0.3-1-0.9-1-1.6C714.2,534.3,715,533.5,716,533.5z"/>
		<path fill="#232323" d="M734.8,533.7v-1.6c0-0.9,0.7-1.6,1.6-1.6s1.6,0.7,1.6,1.6v1.6h2.4c0.9,0,1.6,0.7,1.6,1.6s-0.7,1.6-1.6,1.6
			H738v4.8c0,0.9,0.7,1.6,1.6,1.6h0.8c0.9,0,1.6,0.7,1.6,1.6s-0.7,1.6-1.6,1.6h-0.8c-2.6,0-4.8-2.1-4.8-4.8v-4.8h-1.2
			c-0.9,0-1.6-0.7-1.6-1.6s0.7-1.6,1.6-1.6H734.8z"/>
	</g>
</g>
</svg>
